<svg xmlns="http://www.w3.org/2000/svg" viewBox="0 8.8100004196167 370.7799987792969 46.97999954223633" data-asc="0.9052734375" width="370.7799987792969" height="46.97999954223633"><defs/><g><g fill="#000000"><g transform="translate(0, 0)"><path d="M18.26 35.77L22.58 36.33Q21.88 40.80 18.96 43.32Q16.04 45.85 11.79 45.85Q6.47 45.85 3.23 42.37Q0 38.89 0 32.40Q0 28.20 1.39 25.05Q2.78 21.90 5.63 20.32Q8.47 18.75 11.82 18.75Q16.04 18.75 18.73 20.89Q21.41 23.02 22.17 26.95L17.90 27.61Q17.29 25 15.73 23.68Q14.18 22.36 11.99 22.36Q8.67 22.36 6.59 24.74Q4.52 27.12 4.52 32.28Q4.52 37.50 6.52 39.87Q8.52 42.24 11.74 42.24Q14.33 42.24 16.06 40.65Q17.80 39.06 18.26 35.77ZM24.71 32.30Q24.71 25.10 28.71 21.63Q32.06 18.75 36.87 18.75Q42.21 18.75 45.61 22.25Q49.00 25.76 49.00 31.93Q49.00 36.94 47.50 39.81Q46.00 42.68 43.13 44.26Q40.26 45.85 36.87 45.85Q31.42 45.85 28.06 42.36Q24.71 38.87 24.71 32.30M29.22 32.30Q29.22 37.28 31.40 39.76Q33.57 42.24 36.87 42.24Q40.14 42.24 42.31 39.75Q44.48 37.26 44.48 32.15Q44.48 27.34 42.30 24.87Q40.11 22.39 36.87 22.39Q33.57 22.39 31.40 24.85Q29.22 27.32 29.22 32.30ZM54.15 45.26L54.15 19.34L58.11 19.34L58.11 23.02Q60.96 18.75 66.36 18.75Q68.70 18.75 70.67 19.59Q72.63 20.43 73.61 21.80Q74.58 23.17 74.98 25.05Q75.22 26.27 75.22 29.32L75.22 45.26L70.83 45.26L70.83 29.49Q70.83 26.81 70.31 25.48Q69.80 24.15 68.49 23.35Q67.19 22.56 65.43 22.56Q62.62 22.56 60.58 24.34Q58.54 26.12 58.54 31.10L58.54 45.26L54.15 45.26ZM91.55 41.33L92.19 45.21Q90.33 45.61 88.87 45.61Q86.47 45.61 85.16 44.85Q83.84 44.09 83.30 42.86Q82.76 41.63 82.76 37.67L82.76 22.75L79.54 22.75L79.54 19.34L82.76 19.34L82.76 12.92L87.13 10.28L87.13 19.34L91.55 19.34L91.55 22.75L87.13 22.75L87.13 37.92Q87.13 39.79 87.37 40.33Q87.60 40.87 88.12 41.19Q88.65 41.50 89.62 41.50Q90.36 41.50 91.55 41.33ZM112.77 42.07Q110.33 44.14 108.07 45.00Q105.81 45.85 103.22 45.85Q98.95 45.85 96.66 43.76Q94.36 41.67 94.36 38.43Q94.36 36.52 95.23 34.95Q96.09 33.37 97.50 32.42Q98.90 31.47 100.66 30.98Q101.95 30.64 104.57 30.32Q109.89 29.69 112.40 28.81Q112.43 27.91 112.43 27.66Q112.43 24.98 111.18 23.88Q109.50 22.39 106.18 22.39Q103.08 22.39 101.60 23.47Q100.12 24.56 99.41 27.32L95.12 26.73Q95.70 23.97 97.05 22.28Q98.39 20.58 100.93 19.67Q103.47 18.75 106.81 18.75Q110.13 18.75 112.21 19.53Q114.28 20.31 115.26 21.50Q116.24 22.68 116.63 24.49Q116.85 25.61 116.85 28.54L116.85 34.40Q116.85 40.53 117.13 42.15Q117.41 43.77 118.24 45.26L113.65 45.26Q112.96 43.90 112.77 42.07M112.40 32.25Q110.01 33.23 105.22 33.91Q102.51 34.30 101.39 34.79Q100.27 35.28 99.66 36.22Q99.05 37.16 99.05 38.31Q99.05 40.06 100.38 41.24Q101.71 42.41 104.27 42.41Q106.81 42.41 108.79 41.30Q110.77 40.19 111.69 38.26Q112.40 36.77 112.40 33.86L112.40 32.25ZM140.58 35.77L144.90 36.33Q144.19 40.80 141.27 43.32Q138.35 45.85 134.11 45.85Q128.78 45.85 125.55 42.37Q122.31 38.89 122.31 32.40Q122.31 28.20 123.71 25.05Q125.10 21.90 127.94 20.32Q130.79 18.75 134.13 18.75Q138.35 18.75 141.04 20.89Q143.73 23.02 144.48 26.95L140.21 27.61Q139.60 25 138.05 23.68Q136.50 22.36 134.30 22.36Q130.98 22.36 128.91 24.74Q126.83 27.12 126.83 32.28Q126.83 37.50 128.83 39.87Q130.83 42.24 134.06 42.24Q136.65 42.24 138.38 40.65Q140.11 39.06 140.58 35.77ZM158.25 41.33L158.89 45.21Q157.03 45.61 155.57 45.61Q153.17 45.61 151.86 44.85Q150.54 44.09 150 42.86Q149.46 41.63 149.46 37.67L149.46 22.75L146.24 22.75L146.24 19.34L149.46 19.34L149.46 12.92L153.83 10.28L153.83 19.34L158.25 19.34L158.25 22.75L153.83 22.75L153.83 37.92Q153.83 39.79 154.06 40.33Q154.30 40.87 154.82 41.19Q155.35 41.50 156.32 41.50Q157.06 41.50 158.25 41.33ZM187.60 41.28Q186.01 43.12 184.05 44.23Q182.08 45.34 180.10 45.34Q177.93 45.34 175.88 44.07Q173.83 42.80 172.55 40.16Q171.26 37.52 171.26 34.38Q171.26 30.49 173.25 26.60Q175.24 22.71 178.20 20.75Q181.15 18.80 183.94 18.80Q186.06 18.80 187.99 19.91Q189.92 21.02 191.31 23.29L192.14 19.51L196.51 19.51L192.99 35.89Q192.26 39.31 192.26 39.67Q192.26 40.33 192.76 40.81Q193.26 41.28 193.97 41.28Q195.26 41.28 197.36 39.79Q200.15 37.84 201.77 34.56Q203.39 31.27 203.39 27.78Q203.39 23.71 201.31 20.17Q199.22 16.63 195.08 14.50Q190.94 12.38 185.94 12.38Q180.22 12.38 175.50 15.05Q170.78 17.72 168.18 22.72Q165.58 27.71 165.58 33.42Q165.58 39.40 168.18 43.73Q170.78 48.05 175.70 50.11Q180.62 52.17 186.60 52.17Q192.99 52.17 197.31 50.02Q201.64 47.88 203.78 44.80L208.20 44.80Q206.96 47.36 203.93 50.02Q200.90 52.69 196.73 54.24Q192.55 55.79 186.67 55.79Q181.25 55.79 176.67 54.39Q172.09 53.00 168.87 50.21Q165.65 47.41 164.01 43.77Q161.96 39.16 161.96 33.81Q161.96 27.86 164.40 22.46Q167.38 15.84 172.86 12.33Q178.34 8.81 186.16 8.81Q192.21 8.81 197.03 11.29Q201.86 13.77 204.64 18.68Q207.01 22.90 207.01 27.86Q207.01 34.94 202.03 40.43Q197.58 45.36 192.31 45.36Q190.63 45.36 189.59 44.85Q188.55 44.34 188.06 43.38Q187.74 42.77 187.60 41.28M175.78 34.67Q175.78 38.01 177.37 39.87Q178.96 41.72 181.01 41.72Q182.37 41.72 183.89 40.91Q185.40 40.09 186.78 38.48Q188.16 36.87 189.04 34.39Q189.92 31.91 189.92 29.42Q189.92 26.10 188.27 24.27Q186.62 22.44 184.25 22.44Q182.69 22.44 181.31 23.23Q179.93 24.02 178.64 25.78Q177.34 27.54 176.56 30.05Q175.78 32.57 175.78 34.67ZM213.28 14.58L213.28 9.47L217.68 9.47L217.68 14.58L213.28 14.58M207.71 55.32L208.54 51.59Q209.86 51.93 210.62 51.93Q211.96 51.93 212.62 51.04Q213.28 50.15 213.28 46.58L213.28 19.34L217.68 19.34L217.68 46.68Q217.68 51.46 216.43 53.34Q214.84 55.79 211.16 55.79Q209.38 55.79 207.71 55.32ZM222.78 32.30Q222.78 25.10 226.78 21.63Q230.13 18.75 234.94 18.75Q240.28 18.75 243.68 22.25Q247.07 25.76 247.07 31.93Q247.07 36.94 245.57 39.81Q244.07 42.68 241.20 44.26Q238.33 45.85 234.94 45.85Q229.49 45.85 226.14 42.36Q222.78 38.87 222.78 32.30M227.29 32.30Q227.29 37.28 229.47 39.76Q231.64 42.24 234.94 42.24Q238.21 42.24 240.38 39.75Q242.55 37.26 242.55 32.15Q242.55 27.34 240.37 24.87Q238.18 22.39 234.94 22.39Q231.64 22.39 229.47 24.85Q227.29 27.32 227.29 32.30ZM269.14 42.07Q266.70 44.14 264.44 45.00Q262.18 45.85 259.59 45.85Q255.32 45.85 253.03 43.76Q250.73 41.67 250.73 38.43Q250.73 36.52 251.60 34.95Q252.47 33.37 253.87 32.42Q255.27 31.47 257.03 30.98Q258.33 30.64 260.94 30.32Q266.26 29.69 268.77 28.81Q268.80 27.91 268.80 27.66Q268.80 24.98 267.55 23.88Q265.87 22.39 262.55 22.39Q259.45 22.39 257.97 23.47Q256.49 24.56 255.79 27.32L251.49 26.73Q252.08 23.97 253.42 22.28Q254.76 20.58 257.30 19.67Q259.84 18.75 263.18 18.75Q266.50 18.75 268.58 19.53Q270.65 20.31 271.63 21.50Q272.61 22.68 273.00 24.49Q273.22 25.61 273.22 28.54L273.22 34.40Q273.22 40.53 273.50 42.15Q273.78 43.77 274.61 45.26L270.02 45.26Q269.34 43.90 269.14 42.07M268.77 32.25Q266.38 33.23 261.60 33.91Q258.89 34.30 257.76 34.79Q256.64 35.28 256.03 36.22Q255.42 37.16 255.42 38.31Q255.42 40.06 256.75 41.24Q258.08 42.41 260.64 42.41Q263.18 42.41 265.16 41.30Q267.14 40.19 268.07 38.26Q268.77 36.77 268.77 33.86L268.77 32.25ZM278.39 32.30Q278.39 25.10 282.40 21.63Q285.74 18.75 290.55 18.75Q295.90 18.75 299.29 22.25Q302.69 25.76 302.69 31.93Q302.69 36.94 301.18 39.81Q299.68 42.68 296.81 44.26Q293.95 45.85 290.55 45.85Q285.11 45.85 281.75 42.36Q278.39 38.87 278.39 32.30M282.91 32.30Q282.91 37.28 285.08 39.76Q287.26 42.24 290.55 42.24Q293.82 42.24 296.00 39.75Q298.17 37.26 298.17 32.15Q298.17 27.34 295.98 24.87Q293.80 22.39 290.55 22.39Q287.26 22.39 285.08 24.85Q282.91 27.32 282.91 32.30ZM309.08 45.26L309.08 40.26L314.09 40.26L314.09 45.26L309.08 45.26ZM338.65 42.07Q336.21 44.14 333.95 45.00Q331.69 45.85 329.10 45.85Q324.83 45.85 322.53 43.76Q320.24 41.67 320.24 38.43Q320.24 36.52 321.11 34.95Q321.97 33.37 323.38 32.42Q324.78 31.47 326.54 30.98Q327.83 30.64 330.44 30.32Q335.77 29.69 338.28 28.81Q338.31 27.91 338.31 27.66Q338.31 24.98 337.06 23.88Q335.38 22.39 332.06 22.39Q328.96 22.39 327.48 23.47Q326.00 24.56 325.29 27.32L321.00 26.73Q321.58 23.97 322.92 22.28Q324.27 20.58 326.81 19.67Q329.35 18.75 332.69 18.75Q336.01 18.75 338.09 19.53Q340.16 20.31 341.14 21.50Q342.11 22.68 342.50 24.49Q342.72 25.61 342.72 28.54L342.72 34.40Q342.72 40.53 343.01 42.15Q343.29 43.77 344.12 45.26L339.53 45.26Q338.84 43.90 338.65 42.07M338.28 32.25Q335.89 33.23 331.10 33.91Q328.39 34.30 327.27 34.79Q326.15 35.28 325.54 36.22Q324.93 37.16 324.93 38.31Q324.93 40.06 326.26 41.24Q327.59 42.41 330.15 42.41Q332.69 42.41 334.67 41.30Q336.65 40.19 337.57 38.26Q338.28 36.77 338.28 33.86L338.28 32.25ZM366.46 35.77L370.78 36.33Q370.07 40.80 367.15 43.32Q364.23 45.85 359.99 45.85Q354.66 45.85 351.43 42.37Q348.19 38.89 348.19 32.40Q348.19 28.20 349.58 25.05Q350.98 21.90 353.82 20.32Q356.67 18.75 360.01 18.75Q364.23 18.75 366.92 20.89Q369.60 23.02 370.36 26.95L366.09 27.61Q365.48 25 363.93 23.68Q362.38 22.36 360.18 22.36Q356.86 22.36 354.79 24.74Q352.71 27.12 352.71 32.28Q352.71 37.50 354.71 39.87Q356.71 42.24 359.94 42.24Q362.52 42.24 364.26 40.65Q365.99 39.06 366.46 35.77Z"/></g></g></g></svg>